<?xml version="1.0" encoding="utf-8"?>
<!-- Generator: Adobe Illustrator 23.0.4, SVG Export Plug-In . SVG Version: 6.00 Build 0)  -->
<svg version="1.1" id="Layer_1" xmlns="http://www.w3.org/2000/svg" xmlns:xlink="http://www.w3.org/1999/xlink" x="0px" y="0px"
	 viewBox="0 0 507.88 541.08" style="enable-background:new 0 0 507.88 541.08;" xml:space="preserve">
<style type="text/css">
	.st0{fill:#F7F8F8;}
	.st1{fill:#27326F;}
</style>
<rect x="-3.83" y="0.95" class="st0" width="520" height="550"/>
<rect x="233.78" y="253.59" class="st1" width="44.78" height="6.4"/>
<path class="st1" d="M224.19,247.19c0-7.07,5.73-12.79,12.79-12.79s12.79,5.73,12.79,12.79h6.4c0-6.87-3.62-12.89-9.06-16.28
	c1.52-5.36,6.4-9.32,12.25-9.32c7.07,0,12.8,5.73,12.8,12.8v3.2h6.4c5.3,0,9.6,4.3,9.6,9.6h6.4c0-8.83-7.16-15.99-16-15.99
	c-0.1,0-0.18,0.02-0.28,0.03c-1.52-9.09-9.39-16.02-18.91-16.02c-8.52,0-15.74,5.56-18.25,13.26c-1.33-0.29-2.72-0.46-4.14-0.46
	c-10.6,0-19.19,8.59-19.19,19.19H224.19z"/>
<path class="st1" d="M256.17,288.78v-28.79h-3.2l-22.39,47.98h25.59v28.79h3.2l22.4-47.98H256.17z M240.63,301.57l9.15-19.6v13.21
	h21.94l-9.15,19.6v-13.21H240.63z"/>
<path class="st1" d="M198.59,355.95h115.16v-160H198.59V355.95z M204.99,202.35h102.36v147.2H204.99V202.35z"/>
</svg>
