<?xml version="1.0" encoding="utf-8"?>
<!-- Generator: Adobe Illustrator 23.0.4, SVG Export Plug-In . SVG Version: 6.00 Build 0)  -->
<svg version="1.1" id="Layer_1" xmlns="http://www.w3.org/2000/svg" xmlns:xlink="http://www.w3.org/1999/xlink" x="0px" y="0px"
	 viewBox="0 0 1045.65 610.79" style="enable-background:new 0 0 1045.65 610.79;" xml:space="preserve">
<style type="text/css">
	.st0{fill:#11101B;}
	.st1{fill:#FFFFFF;}
</style>
<rect x="-20.27" y="-5.49" class="st0" width="1080" height="650"/>
<polygon class="st1" points="484.1,349.29 452.24,301.21 452.24,349.29 444.09,349.29 444.09,290.32 454.99,290.32 484.43,335.56 
	484.43,290.32 492.58,290.32 492.58,349.29 "/>
<path class="st1" d="M512.21,288.49c3.16,0,5.65,2.5,5.65,5.66c0,3.08-2.49,5.57-5.65,5.57c-3.08,0-5.57-2.5-5.57-5.57
	C506.63,290.98,509.13,288.49,512.21,288.49 M508.38,309.28h7.74v40.01h-7.74V309.28z"/>
<path class="st1" d="M531.09,349.29v-40h7.49v5.32c2.49-4.41,7.48-6.49,12.14-6.49c4.99,0,9.82,2.41,11.98,7.57
	c3.16-5.74,8.32-7.57,13.39-7.57c6.99,0,13.81,4.74,13.81,15.22v25.95h-7.74v-25.12c0-5.24-2.58-9.15-8.48-9.15
	c-5.49,0-9.23,4.32-9.23,10.06v24.2h-7.82v-25.12c0-5.16-2.5-9.15-8.48-9.15c-5.57,0-9.32,4.16-9.32,10.15v24.12H531.09z"/>
<path class="st1" d="M604.03,349.29v-60.22h7.73v25.87c1.91-3.58,6.57-6.82,13.22-6.82c12.14,0,18.38,9.32,18.38,20.96
	c0,11.9-6.74,21.29-18.63,21.29c-5.9,0-10.48-2.58-12.97-6.9v5.82H604.03z M623.57,315.02c-6.9,0-11.89,5.4-11.89,14.05
	s4.99,14.31,11.89,14.31c7.15,0,11.81-5.66,11.81-14.31S630.81,315.02,623.57,315.02"/>
<path class="st1" d="M669.15,350.54c-9.32,0-14.97-6.99-14.97-16.05v-25.2H662v24.04c0,5.49,2.5,10.32,9.07,10.32
	c6.32,0,9.48-4.16,9.48-10.23v-24.12h7.82v32.6c0,3.16,0.25,5.99,0.42,7.4h-7.49c-0.17-0.91-0.33-3.16-0.33-4.82
	C678.8,348.62,673.81,350.54,669.15,350.54"/>
<path class="st1" d="M706.66,336.39c0.5,4.16,3.66,7.49,9.31,7.49c4.41,0,6.82-2.5,6.82-5.32c0-2.5-1.83-4.41-5.16-5.16l-6.82-1.5
	c-6.24-1.33-9.98-5.57-9.98-11.23c0-6.82,6.41-12.64,14.22-12.64c10.98,0,14.39,7.15,15.22,10.73l-6.9,2.58
	c-0.33-2.08-2-6.65-8.32-6.65c-3.99,0-6.65,2.58-6.65,5.32c0,2.41,1.5,4.16,4.58,4.83l6.49,1.41c7.24,1.58,11.06,5.99,11.06,11.9
	c0,5.65-4.74,12.39-14.64,12.39c-10.98,0-15.64-7.07-16.3-11.65L706.66,336.39z"/>
<rect x="344.11" y="297.15" class="st1" width="44.78" height="6.4"/>
<path class="st1" d="M334.52,290.75c0-7.07,5.73-12.8,12.79-12.8c7.07,0,12.79,5.73,12.79,12.8h6.4c0-6.87-3.62-12.89-9.06-16.28
	c1.52-5.36,6.4-9.32,12.25-9.32c7.07,0,12.8,5.73,12.8,12.79v3.2h6.39c5.3,0,9.6,4.3,9.6,9.6h6.4c0-8.83-7.16-15.99-16-15.99
	c-0.1,0-0.18,0.02-0.28,0.03c-1.52-9.09-9.39-16.02-18.91-16.02c-8.52,0-15.74,5.56-18.25,13.26c-1.33-0.29-2.72-0.46-4.14-0.46
	c-10.6,0-19.19,8.59-19.19,19.19H334.52z"/>
<path class="st1" d="M366.5,332.33v-28.79h-3.2l-22.39,47.98h25.59v28.79h3.2l22.4-47.98H366.5z M350.96,345.13l9.15-19.6v13.21
	h21.95l-9.15,19.6v-13.21H350.96z"/>
<path class="st1" d="M308.92,399.51h115.16v-160H308.92V399.51z M315.32,245.91h102.36v147.21H315.32V245.91z"/>
</svg>
	